<?xml version="1.0" standalone="no"?>
<!DOCTYPE svg PUBLIC "-//W3C//DTD SVG 20010904//EN"
 "http://www.w3.org/TR/2001/REC-SVG-20010904/DTD/svg10.dtd">
<svg version="1.0" xmlns="http://www.w3.org/2000/svg"
 width="100.000000pt" height="100.000000pt" viewBox="0 0 100.000000 100.000000"
 preserveAspectRatio="xMidYMid meet">

<g transform="translate(0.000000,100.000000) scale(0.100000,-0.100000)"
fill="#000000" stroke="none">
<path d="M440 860 l0 -110 -173 0 c-156 0 -176 -2 -190 -18 -15 -16 -17 -52
-17 -293 0 -222 3 -279 14 -295 14 -18 30 -19 426 -19 396 0 412 1 426 19 11
16 14 73 14 296 0 256 -1 278 -18 293 -16 14 -45 17 -190 17 l-172 0 0 110 0
110 -60 0 -60 0 0 -110z m90 -130 c0 -228 1 -232 52 -183 28 27 28 27 48 7 20
-19 20 -20 -55 -94 l-75 -74 -75 74 c-75 74 -75 75 -55 94 20 20 20 20 48 -7
51 -49 52 -45 52 183 l0 210 30 0 30 0 0 -210z m-90 -87 l0 -76 -25 23 -26 24
-42 -42 -42 -42 90 -90 c49 -49 97 -90 105 -90 8 0 56 41 105 90 l90 90 -42
42 -42 42 -26 -24 -25 -23 0 76 0 77 173 -2 172 -3 0 -275 0 -275 -405 0 -405
0 -3 265 c-1 146 0 270 3 277 3 10 47 13 175 13 l170 0 0 -77z"/>
<path d="M147 243 c-13 -13 -7 -53 8 -53 10 0 15 10 15 30 0 29 -9 38 -23 23z"/>
<path d="M220 221 c0 -21 5 -31 16 -31 11 0 14 8 12 27 -4 39 -28 42 -28 4z"/>
<path d="M300 221 c0 -21 5 -31 16 -31 11 0 14 8 12 27 -4 39 -28 42 -28 4z"/>
<path d="M377 235 c-8 -20 3 -47 17 -42 14 5 14 49 0 54 -6 2 -14 -3 -17 -12z"/>
<path d="M454 235 c-8 -19 2 -45 16 -45 5 0 10 14 10 30 0 31 -16 41 -26 15z"/>
<path d="M537 243 c-13 -13 -7 -53 8 -53 10 0 15 10 15 30 0 29 -9 38 -23 23z"/>
<path d="M610 220 c0 -20 5 -30 15 -30 10 0 15 10 15 30 0 20 -5 30 -15 30
-10 0 -15 -10 -15 -30z"/>
<path d="M690 221 c0 -21 5 -31 16 -31 11 0 14 8 12 27 -4 39 -28 42 -28 4z"/>
<path d="M770 220 c0 -21 4 -30 13 -27 6 2 12 14 12 27 0 13 -6 25 -12 28 -9
2 -13 -7 -13 -28z"/>
<path d="M844 235 c-7 -18 2 -45 15 -45 13 0 22 27 15 45 -4 8 -10 15 -15 15
-5 0 -12 -7 -15 -15z"/>
</g>
</svg>
