<?xml version="1.0" encoding="UTF-8"?>
<!DOCTYPE svg PUBLIC "-//W3C//DTD SVG 1.1//EN" "http://www.w3.org/Graphics/SVG/1.1/DTD/svg11.dtd">
<svg xmlns="http://www.w3.org/2000/svg" version="1.1" width="100px" height="100px" style="shape-rendering:geometricPrecision; text-rendering:geometricPrecision; image-rendering:optimizeQuality; fill-rule:evenodd; clip-rule:evenodd" xmlns:xlink="http://www.w3.org/1999/xlink">
<g><path style="opacity:0.947" fill="#1a1d42" d="M 64.5,23.5 C 64.6661,29.1764 64.4994,34.8431 64,40.5C 62,43.1667 60,43.1667 58,40.5C 57.5005,34.1754 57.3338,27.8421 57.5,21.5C 57.1412,19.629 56.1412,18.129 54.5,17C 44.5,16.3333 34.5,16.3333 24.5,17C 22.6667,17.5 21.5,18.6667 21,20.5C 20.8265,24.5408 20.3265,28.5408 19.5,32.5C 17.5041,33.6096 15.6708,33.2763 14,31.5C 12.9393,25.2757 13.6059,19.2757 16,13.5C 17.5793,11.9588 19.4127,10.7922 21.5,10C 33.1667,9.33333 44.8333,9.33333 56.5,10C 62.3584,12.5428 65.0251,17.0428 64.5,23.5 Z"/></g>
<g><path style="opacity:0.983" fill="#8ae4f0" d="M 57.5,21.5 C 57.3338,27.8421 57.5005,34.1754 58,40.5C 60,43.1667 62,43.1667 64,40.5C 64.4994,34.8431 64.6661,29.1764 64.5,23.5C 65.7942,24.2899 66.9609,25.2899 68,26.5C 68.4995,32.8246 68.6662,39.1579 68.5,45.5C 58.3416,46.6585 48.0083,46.8252 37.5,46C 40.6667,42.8333 43.8333,39.6667 47,36.5C 47.7235,33.8751 46.7235,32.2084 44,31.5C 38.0085,36.6581 32.1752,41.9914 26.5,47.5C 26.3337,40.4921 26.5004,33.4921 27,26.5C 28.339,23.9057 30.5056,22.4057 33.5,22C 41.4931,21.5003 49.4931,21.3336 57.5,21.5 Z"/></g>
<g><path style="opacity:1" fill="#1a1d42" d="M 68.5,45.5 C 74.8421,45.3338 81.1754,45.5005 87.5,46C 90.1667,48.3333 90.1667,50.6667 87.5,53C 81.1754,53.4995 74.8421,53.6662 68.5,53.5C 58.3416,52.3415 48.0083,52.1748 37.5,53C 40.6667,56.1667 43.8333,59.3333 47,62.5C 47.7235,65.1249 46.7235,66.7916 44,67.5C 38.0085,62.3419 32.1752,57.0086 26.5,51.5C 26.5,50.1667 26.5,48.8333 26.5,47.5C 32.1752,41.9914 38.0085,36.6581 44,31.5C 46.7235,32.2084 47.7235,33.8751 47,36.5C 43.8333,39.6667 40.6667,42.8333 37.5,46C 48.0083,46.8252 58.3416,46.6585 68.5,45.5 Z"/></g>
<g><path style="opacity:0.991" fill="#1e2247" d="M 26.5,82.5 C 36.1724,82.6665 45.8391,82.4998 55.5,82C 56,81.5 56.5,81 57,80.5C 57.3333,73.1667 57.6667,65.8333 58,58.5C 60,55.8333 62,55.8333 64,58.5C 64.6667,65.8333 64.6667,73.1667 64,80.5C 62.5,84.6667 59.6667,87.5 55.5,89C 46.1726,89.4998 36.8393,89.6665 27.5,89.5C 20.5039,90.0941 16.0039,87.0941 14,80.5C 13.3333,67.5 13.3333,54.5 14,41.5C 16,40.1667 18,40.1667 20,41.5C 20.3333,53.8333 20.6667,66.1667 21,78.5C 22.0183,80.9282 23.8517,82.2615 26.5,82.5 Z"/></g>
<g><path style="opacity:0.977" fill="#8be5f0" d="M 26.5,51.5 C 32.1752,57.0086 38.0085,62.3419 44,67.5C 46.7235,66.7916 47.7235,65.1249 47,62.5C 43.8333,59.3333 40.6667,56.1667 37.5,53C 48.0083,52.1748 58.3416,52.3415 68.5,53.5C 68.6665,65.1714 68.4999,76.8381 68,88.5C 67.2155,90.286 66.0488,91.786 64.5,93C 53.1667,93.6667 41.8333,93.6667 30.5,93C 29.2899,91.9609 28.2899,90.7942 27.5,89.5C 36.8393,89.6665 46.1726,89.4998 55.5,89C 59.6667,87.5 62.5,84.6667 64,80.5C 64.6667,73.1667 64.6667,65.8333 64,58.5C 62,55.8333 60,55.8333 58,58.5C 57.6667,65.8333 57.3333,73.1667 57,80.5C 56.5,81 56,81.5 55.5,82C 45.8391,82.4998 36.1724,82.6665 26.5,82.5C 26.5,72.1667 26.5,61.8333 26.5,51.5 Z"/></g>
</svg>
